<svg width="32" height="32" viewBox="0 0 32 32" fill="none" xmlns="http://www.w3.org/2000/svg">
<path d="M16.0001 14.875C14.5856 14.875 13.229 14.3153 12.2288 13.319C11.2287 12.3227 10.6667 10.9715 10.6667 9.5625C10.6667 8.15354 11.2287 6.80228 12.2288 5.806C13.229 4.80971 14.5856 4.25 16.0001 4.25C17.4146 4.25 18.7711 4.80971 19.7713 5.806C20.7715 6.80228 21.3334 8.15354 21.3334 9.5625C21.3334 10.9715 20.7715 12.3227 19.7713 13.319C18.7711 14.3153 17.4146 14.875 16.0001 14.875ZM16.0001 6.375C14.2294 6.375 12.8001 7.79875 12.8001 9.5625C12.8001 11.3263 14.2294 12.75 16.0001 12.75C17.7707 12.75 19.2001 11.3263 19.2001 9.5625C19.2001 7.79875 17.7707 6.375 16.0001 6.375Z" fill="#FF5C33"/>
<path d="M28.8 23.375C28.2027 23.375 27.7333 22.9075 27.7333 22.3125C27.7333 21.7175 28.2027 21.25 28.8 21.25C29.3973 21.25 29.8667 20.7825 29.8667 20.1875C29.8667 18.7785 29.3048 17.4273 28.3046 16.431C27.3044 15.4347 25.9478 14.875 24.5333 14.875H22.4C21.8027 14.875 21.3333 14.4075 21.3333 13.8125C21.3333 13.2175 21.8027 12.75 22.4 12.75C24.1707 12.75 25.6 11.3263 25.6 9.5625C25.6 7.79875 24.1707 6.375 22.4 6.375C21.8027 6.375 21.3333 5.9075 21.3333 5.3125C21.3333 4.7175 21.8027 4.25 22.4 4.25C23.8145 4.25 25.171 4.80971 26.1712 5.806C27.1714 6.80228 27.7333 8.15354 27.7333 9.5625C27.7333 10.88 27.264 12.07 26.4533 13.005C29.632 13.855 32 16.745 32 20.1875C32 21.9513 30.5707 23.375 28.8 23.375ZM3.2 23.375C1.42933 23.375 0 21.9513 0 20.1875C0 16.745 2.34667 13.855 5.54667 13.005C4.75733 12.07 4.26667 10.88 4.26667 9.5625C4.26667 8.15354 4.82857 6.80228 5.82876 5.806C6.82896 4.80971 8.18551 4.25 9.6 4.25C10.1973 4.25 10.6667 4.7175 10.6667 5.3125C10.6667 5.9075 10.1973 6.375 9.6 6.375C7.82933 6.375 6.4 7.79875 6.4 9.5625C6.4 11.3263 7.82933 12.75 9.6 12.75C10.1973 12.75 10.6667 13.2175 10.6667 13.8125C10.6667 14.4075 10.1973 14.875 9.6 14.875H7.46667C6.05218 14.875 4.69562 15.4347 3.69543 16.431C2.69524 17.4273 2.13333 18.7785 2.13333 20.1875C2.13333 20.7825 2.60267 21.25 3.2 21.25C3.79733 21.25 4.26667 21.7175 4.26667 22.3125C4.26667 22.9075 3.79733 23.375 3.2 23.375ZM22.4 29.75H9.6C7.82933 29.75 6.4 28.3263 6.4 26.5625V24.4375C6.4 20.3363 9.74933 17 13.8667 17H18.1333C22.2507 17 25.6 20.3363 25.6 24.4375V26.5625C25.6 28.3263 24.1707 29.75 22.4 29.75ZM13.8667 19.125C12.4522 19.125 11.0956 19.6847 10.0954 20.681C9.09524 21.6773 8.53333 23.0285 8.53333 24.4375V26.5625C8.53333 27.1575 9.00267 27.625 9.6 27.625H22.4C22.9973 27.625 23.4667 27.1575 23.4667 26.5625V24.4375C23.4667 23.0285 22.9048 21.6773 21.9046 20.681C20.9044 19.6847 19.5478 19.125 18.1333 19.125H13.8667Z" fill="#FF5C33"/>
</svg>
