<svg width="32" height="32" viewBox="0 0 32 32" fill="none" xmlns="http://www.w3.org/2000/svg">
<path fill-rule="evenodd" clip-rule="evenodd" d="M1.46655 15.9999C1.46655 7.97314 7.97314 1.46655 15.9999 1.46655C24.0266 1.46655 30.5332 7.97314 30.5332 15.9999C30.5332 24.0266 24.0266 30.5332 15.9999 30.5332C7.97314 30.5332 1.46655 24.0266 1.46655 15.9999ZM15.9999 3.86655C9.29863 3.86655 3.86655 9.29863 3.86655 15.9999C3.86655 22.7011 9.29863 28.1332 15.9999 28.1332C22.7011 28.1332 28.1332 22.7011 28.1332 15.9999C28.1332 9.29863 22.7011 3.86655 15.9999 3.86655Z" fill="#718096"/>
<path fill-rule="evenodd" clip-rule="evenodd" d="M12.7943 8.79434C13.6445 7.94417 14.7976 7.46655 15.9999 7.46655C17.2022 7.46655 18.3553 7.94417 19.2054 8.79434C20.0556 9.6445 20.5332 10.7976 20.5332 11.9999C20.5332 13.2022 20.0556 14.3553 19.2054 15.2054C18.3553 16.0556 17.2022 16.5332 15.9999 16.5332C14.7976 16.5332 13.6445 16.0556 12.7943 15.2054C11.9442 14.3553 11.4666 13.2022 11.4666 11.9999C11.4666 10.7976 11.9442 9.6445 12.7943 8.79434ZM15.9999 9.86655C15.4341 9.86655 14.8915 10.0913 14.4914 10.4914C14.0913 10.8915 13.8666 11.4341 13.8666 11.9999C13.8666 12.5657 14.0913 13.1083 14.4914 13.5084C14.8915 13.9085 15.4341 14.1332 15.9999 14.1332C16.5657 14.1332 17.1083 13.9085 17.5084 13.5084C17.9085 13.1083 18.1332 12.5657 18.1332 11.9999C18.1332 11.4341 17.9085 10.8915 17.5084 10.4914C17.1083 10.0913 16.5657 9.86655 15.9999 9.86655Z" fill="#718096"/>
<path fill-rule="evenodd" clip-rule="evenodd" d="M13.3332 20.5333C10.4376 20.5333 8.06662 22.7861 7.87864 25.6337C7.83498 26.295 7.2635 26.7957 6.6022 26.752C5.9409 26.7084 5.4402 26.1369 5.48385 25.4756C5.75454 21.3752 9.1649 18.1333 13.3332 18.1333H18.6666C22.8293 18.1333 26.2366 21.3665 26.5151 25.4591C26.5601 26.1204 26.0606 26.6929 25.3994 26.7379C24.7382 26.7829 24.1657 26.2833 24.1207 25.6221C23.9272 22.7801 21.5585 20.5333 18.6666 20.5333H13.3332Z" fill="#718096"/>
</svg>
