<svg width="237" height="35" viewBox="0 0 237 35" fill="none" xmlns="http://www.w3.org/2000/svg">
<path d="M203.735 34.3V0H217.896C221.457 0 224.625 0.685999 227.402 2.058C230.211 3.39733 232.416 5.35733 234.017 7.938C235.618 10.486 236.418 13.5077 236.418 17.003C236.418 20.4657 235.618 23.52 234.017 26.166C232.416 28.7793 230.228 30.7883 227.451 32.193C224.707 33.5977 221.62 34.3 218.19 34.3H203.735ZM217.504 26.656C219.431 26.656 221.048 26.2967 222.355 25.578C223.662 24.8267 224.642 23.7323 225.295 22.295C225.981 20.8577 226.324 19.11 226.324 17.052C226.324 15.1573 225.981 13.5077 225.295 12.103C224.642 10.6657 223.662 9.555 222.355 8.771C221.081 7.987 219.513 7.595 217.651 7.595H213.388V26.656H217.504Z" fill="#F97561"/>
<path d="M161.757 34.3V0H175.134L189.001 24.99L191.696 23.275C190.684 21.6743 189.851 20.1717 189.197 18.767C188.544 17.3623 188.038 15.8923 187.678 14.357C187.319 12.789 187.139 11.1067 187.139 9.31V0H196.449V34.3H185.473L169.156 4.802L166.412 6.419C167.784 8.70567 168.911 11.1067 169.793 13.622C170.675 16.1373 171.116 18.8323 171.116 21.707V34.3H161.757Z" fill="#F97561"/>
<path d="M120.61 34.3L132.86 0H145.698L157.948 34.3H147.511L141.582 15.533C141.19 14.1937 140.945 12.6747 140.847 10.976C140.749 9.27733 140.716 7.21933 140.749 4.802H137.564C137.597 7.154 137.548 9.19567 137.417 10.927C137.286 12.6257 136.992 14.1773 136.535 15.582L130.41 34.3H120.61ZM128.646 27.391L131.194 20.09H147.07L149.667 27.391H128.646Z" fill="#F97561"/>
<path d="M89.2871 34.3V0H106.829C109.279 0 111.337 0.343 113.003 1.029C114.702 1.68233 115.976 2.58067 116.825 3.724C117.674 4.86733 118.099 6.174 118.099 7.644C118.099 9.93067 117.266 11.6947 115.6 12.936C113.967 14.1773 111.647 14.8307 108.642 14.896V17.885C110.863 17.9177 112.758 18.2117 114.326 18.767C115.927 19.3223 117.152 20.1717 118.001 21.315C118.883 22.4583 119.324 23.912 119.324 25.676C119.324 27.44 118.818 28.9753 117.805 30.282C116.825 31.556 115.371 32.5523 113.444 33.271C111.549 33.957 109.295 34.3 106.682 34.3H89.2871ZM104.967 27.048C105.914 27.048 106.731 26.9337 107.417 26.705C108.103 26.4437 108.642 26.0517 109.034 25.529C109.459 25.0063 109.671 24.353 109.671 23.569C109.671 22.393 109.246 21.511 108.397 20.923C107.548 20.3023 106.404 19.992 104.967 19.992H98.6951V27.048H104.967ZM104.918 13.524C105.735 13.524 106.453 13.4097 107.074 13.181C107.695 12.9197 108.168 12.5603 108.495 12.103C108.854 11.613 109.034 11.025 109.034 10.339C109.034 9.32633 108.675 8.55867 107.956 8.036C107.237 7.51333 106.225 7.252 104.918 7.252H98.6951V13.524H104.918Z" fill="#F97561"/>
<path d="M56.6411 34.3V0H83.3951V7.546H66.0981V13.328H79.5241V20.335H66.0981V26.754H83.3951V34.3H56.6411Z" fill="#F97561"/>
<path d="M8.869 34.3L0 7.62939e-06H10.486L12.397 9.16301C12.887 11.5477 13.181 14.3243 13.279 17.493C13.4097 20.629 13.4423 23.7977 13.377 26.999H16.611C16.5783 24.2877 16.6273 21.8213 16.758 19.6C16.9213 17.346 17.297 14.5693 17.885 11.27L20.678 7.62939e-06H31.997L34.839 11.221C35.427 14.161 35.7863 16.7907 35.917 19.11C36.0803 21.4293 36.162 24.059 36.162 26.999H39.347C39.3143 23.373 39.347 20.1063 39.445 17.199C39.543 14.259 39.8043 11.6457 40.229 9.35901L42.238 7.62939e-06H52.087L43.61 34.3H32.291L29.155 21.511C28.665 19.2243 28.3547 16.905 28.224 14.553C28.0933 12.1683 28.0443 9.60401 28.077 6.86001H24.843C24.8757 9.57134 24.8103 12.1193 24.647 14.504C24.5163 16.856 24.206 19.1917 23.716 21.511L20.482 34.3H8.869Z" fill="#F97561"/>
</svg>
